Coordinates
version=1
nRows=8
nColumns=36
inDegrees=yes

Units are S.I. units (second, meters, Newtons, ...)
If the header above contains a line with 'inDegrees', this indicates whether rotational values are in degrees (yes) or radians (no).

endheader
time	pelvis_tilt	pelvis_list	pelvis_rotation	pelvis_tx	pelvis_ty	pelvis_tz	hip_flexion_r	hip_adduction_r	hip_rotation_r	knee_angle_r	knee_angle_r_beta	ankle_angle_r	subtalar_angle_r	mtp_angle_r	hip_flexion_l	hip_adduction_l	hip_rotation_l	knee_angle_l	knee_angle_l_beta	ankle_angle_l	subtalar_angle_l	mtp_angle_l	lumbar_extension	lumbar_bending	lumbar_rotation	arm_flex_r	arm_add_r	arm_rot_r	elbow_flex_r	pro_sup_r	arm_flex_l	arm_add_l	arm_rot_l	elbow_flex_l	pro_sup_l
      2.48333330	    -35.73647924	      2.04950974	     -5.92660355	      1.51991668	      0.55193772	      0.06273771	    115.95344698	    -13.57032497	      7.25775909	    116.07873110	      2.02595605	     35.54689758	      2.86781414	     -7.49999987	    116.62514738	    -13.39543562	     10.54926691	    115.09150160	      2.00872564	     35.74446159	      6.06018805	     -7.49999987	    -36.19666135	     -2.61140562	      7.00677444	     93.19623737	    -37.75160560	     44.41891495	    126.87704417	     61.06685154	    105.47646004	    -25.98367772	     58.14532568	    119.24250179	     80.69056120
      2.50000000	    -36.65279106	      2.24085417	     -6.04161816	      1.52290581	      0.56469186	      0.05973088	    115.06377717	    -13.37629023	      6.62427074	    114.52676002	      1.99886904	     36.42180239	      2.52380138	     -7.49999987	    115.66892643	    -13.44671340	      9.80085037	    113.47616513	      1.98053270	     36.46766602	      5.54820735	     -7.49999987	    -35.95619074	     -2.60700147	      7.28199664	     93.21263423	    -37.60956191	     44.27793282	    126.58320335	     61.06000954	    104.73936122	    -25.58003271	     58.29373933	    119.26571946	     80.77064930
      2.51666670	    -37.82649757	      2.30460261	     -6.17714478	      1.51638501	      0.56842982	      0.06199450	    114.59422662	    -12.96306144	      5.69526449	    112.72403693	      1.96740559	     36.81852074	      2.25371915	     -7.49999987	    115.20881743	    -13.51428683	      9.17050943	    111.70521345	      1.94962377	     36.67261047	      4.52799608	     -7.49999987	    -33.95806043	     -2.59870715	      8.60698048	     92.03345156	    -38.65661420	     43.46297659	    127.62262533	     59.71364426	    102.53808776	    -24.08603683	     55.36500638	    118.71339086	     90.45535892
      2.53333330	    -38.53098008	      2.35408495	     -6.22873973	      1.50673629	      0.57241858	      0.06602881	    114.03815527	    -12.37892013	      4.74213288	    110.89810696	      1.93553710	     36.86836794	      1.77243739	     -7.49999987	    114.74435612	    -13.57660176	      8.55260150	    109.92635411	      1.91857681	     36.59720553	      3.27539999	     -7.49999987	    -32.42501624	     -2.81282592	      8.55344626	     93.28362367	    -38.34973927	     44.03206881	    127.40407580	     59.27519092	    104.16073873	    -24.84530633	     55.98889017	    119.59482360	     90.34015583
      2.55000000	    -39.39508324	      2.51853328	     -6.19133600	      1.51141973	      0.58234225	      0.06329520	    113.67227834	    -11.90488725	      3.91190330	    109.13081797	      1.90469209	     36.86188230	      1.43085172	     -7.49999987	    114.31156378	    -13.53306961	      7.73966020	    108.11366122	      1.88693935	     36.33755202	      2.18105677	     -7.49999987	    -30.77435389	     -2.76678556	      8.42269337	     93.33754283	    -38.81917781	     44.47302902	    128.89001902	     58.92605556	    104.40149417	    -25.81315110	     55.80269925	    120.92748134	     90.08175247
      2.56666670	    -40.09472444	      2.62979552	     -6.08477621	      1.50746505	      0.59714179	      0.06550020	    112.82396163	    -11.54017082	      3.08794583	    106.83497813	      1.86462212	     36.60765800	      1.25606616	     -7.49999987	    113.47243986	    -13.38978761	      6.84416689	    105.88677973	      1.84807294	     35.78156986	      0.95153438	     -7.49999987	    -29.44269913	     -2.70057070	      8.31584773	     95.79499969	    -39.56910046	     47.23684949	    128.79822569	     52.98052497	    105.99001301	    -26.99419950	     56.79564368	    121.72870412	     85.57196053
      2.58333330	    -40.84755672	      2.71083866	     -5.86506479	      1.50794066	      0.61692261	      0.06361774	    111.67189756	    -11.33892600	      2.32741727	    104.03340964	      1.81572553	     35.94419069	      1.07492658	     -7.49999987	    112.28642190	    -13.04706573	      5.83765225	    103.11819534	      1.79975203	     34.65833058	     -0.52164641	     -7.49999987	    -28.17856643	     -2.52022373	      7.96425999	     97.69063820	    -40.27205145	     48.74441177	    129.44759809	     50.69164096	    107.50188277	    -28.71628846	     57.80330585	    122.24226290	     82.53850866
      2.60000000	    -40.99195456	      2.95103353	     -5.88914197	      1.53114618	      0.62790324	      0.05645953	    109.59948316	    -11.14621198	      1.90502898	    101.32636099	      1.76847862	     35.48966582	      1.12730621	     -7.49999987	    109.89338854	    -12.62297020	      4.85603958	    100.46850304	      1.75350617	     34.22299802	     -1.45348468	     -7.49999987	    -26.12567322	     -2.44480488	      7.82439401	     95.89753756	    -42.47606353	     47.58377771	    133.05962187	     51.83679218	    106.32276502	    -29.31403407	     55.66644274	    124.97797826	     79.57472842
